<svg xmlns="http://www.w3.org/2000/svg" xmlns:xlink="http://www.w3.org/1999/xlink" viewBox="0 0 153.4 155" xmlns:v="https://vecta.io/nano"><circle cx="76.7" cy="76.7" r="76.7" fill="#efefef"/><defs><circle id="A" cx="76.7" cy="76.7" r="76.7"/></defs><clipPath id="B"><use xlink:href="#A"/></clipPath><g clip-path="url(#B)"><path d="M107.1 62.6c.6-8.6 7.1-32.3-6.9-30.7-1.8-12.4-13.4-18.7-24.6-18.1-30.3 1.6-35 29.3-30.3 48.8 7.7 20.5 47.3 4.5 61.8 0z" fill="#29293d"/><path d="M143.5 155H9.9s4-22.4 13.2-35.3 43.3-17.6 43.3-17.6l10.3 1.6 10.3-1.6s34.1 4.7 43.3 17.6 13.2 35.3 13.2 35.3z" fill="#971632"/><path d="M58.5 103c5.9-1.4 12-1.8 18-1.4h0c6-.4 12.1 0 18 1.4.9 8.1-2.5 18.4-17.9 18.4-15.5.1-19-10.1-18.1-18.4z" fill="#fff"/><path d="M76.5 113.5h0a8.96 8.96 0 0 1-9-9V87.1h18.1v17.3c-.1 5-4.1 9.1-9.1 9.1z" fill="#f1b69a"/><path d="M85.5 86.1v10.6s-3 5.3-9.1 5.3c-4.8 0-9-4.6-9-4.6V86.1h18.1z" fill="#150a08"/><path d="M51.2 66.5c-4.9-7.4-10.6-2.7-10.6 2.6 0 7.6 8.2 14.1 12.9 8.7s-2.3-11.3-2.3-11.3z" fill="#f1b69a"/><path d="M50.1 70c-3-5.7-7.3-.4-5.7 1.7" fill="none" stroke="#e07e61" stroke-linecap="round" stroke-miterlimit="10"/><path d="M100.1 66.5c4.9-7.4 10.6-2.7 10.6 2.6 0 7.6-8.2 14.1-12.9 8.7s2.3-11.3 2.3-11.3z" fill="#f1b69a"/><path d="M101.1 70c3-5.7 7.3-.4 5.7 1.7" fill="none" stroke="#e07e61" stroke-linecap="round" stroke-miterlimit="10"/><path d="M75.6 95.7c-19.3 0-30.8-21.2-26.3-42.8C53 35 98.2 35 101.9 52.9c4.5 21.7-7 42.8-26.3 42.8z" fill="#f1b69a"/><g fill="#29293d"><path d="M104.1 60s-.3 19.5-7.5 28.6-20.1 9.7-20.1 9.7-14.4-.6-21.7-9.7S47.3 60 47.3 60l1-2c.7 5.2 4.2 18.8 8.3 21.7 6.7-2.3 11.8-2.5 19.4-2.5 6.4.1 12.8.6 19.2 1.6 3.3-2.9 7.3-16.1 8-20.8l.9 2zM60.8 39.8l4.5-1.1s-5.9 9.4 6.6 11.3S97.4 43.3 87 39l3.8-.3-9.1-7-20.9 8.1z"/></g></g></svg>