<svg xmlns="http://www.w3.org/2000/svg" xmlns:xlink="http://www.w3.org/1999/xlink" viewBox="0 0 153.4 153.4" xmlns:v="https://vecta.io/nano"><circle cx="76.7" cy="76.7" r="76.7" fill="#efefef"/><defs><circle id="A" cx="76.7" cy="76.7" r="76.7"/></defs><clipPath id="B"><use xlink:href="#A"/></clipPath><g clip-path="url(#B)"><path d="M50.9 33c.5-1.1-6.2 1-6.8 1.3-3.3 1.4-5.9 4.1-7.3 7.4-1.3 3.4-1.8 7-1.5 10.7.3 11.1 8.7 25.2.7 35.1-4.1 5.1-11.3 6.4-16.8 10.1-10.4 7-12.5 22.7-6.5 33.6s18.3 17.5 30.7 19.3 25-.4 37.2-3.1c8.5-1.9 17.2-4.2 24.1-9.5 16.3-12.5 8.7-28.1 1.2-42.7-4.8-9.4 3.8-13.8 7.6-25.4 6.8-20.9-2.9-41.2-21.4-49.2C61.8 7.5 51 32.9 50.9 33z" fill="#222"/><path d="M136.4 153.4H17s5.6-21.5 13.5-34.3 37-17.1 37-17.1l9.2 1.5 9.2-1.5s29.1 4.3 37 17.1 13.5 34.3 13.5 34.3z" fill="#b69440"/><g fill="#f1b69a"><path d="M50.1 106.3c14 20 40.5 17.4 53.2 0 0 0-25.6-11.9-53.2 0z"/><path d="M76.5 113.5h0a8.96 8.96 0 0 1-9-9V87.1h18.1v17.3c-.1 5-4.1 9.1-9.1 9.1z"/></g><path d="M85.5 85.1v10.6s-3 5.3-9.1 5.3c-4.8 0-9-4.6-9-4.6V85.1h18.1z" fill="#150a08"/><path d="M51.2 66.5c-4.9-7.4-10.6-2.6-10.6 2.6 0 7.6 8.2 14.1 12.9 8.7s-2.3-11.3-2.3-11.3z" fill="#f1b69a"/><path d="M50.1 70c-3-5.7-7.3-.4-5.7 1.7" fill="none" stroke="#e07e61" stroke-linecap="round" stroke-miterlimit="10"/><path d="M100.1 66.5c4.9-7.4 10.6-2.6 10.6 2.6 0 7.6-8.2 14.1-12.9 8.7s2.3-11.3 2.3-11.3z" fill="#f1b69a"/><path d="M101.1 70c3-5.7 7.3-.4 5.7 1.7" fill="none" stroke="#e07e61" stroke-linecap="round" stroke-miterlimit="10"/><path d="M75.6 95.7c-19.3 0-30.8-21.2-26.3-42.8C53 35 98.2 35 101.9 52.9c4.5 21.7-7 42.8-26.3 42.8z" fill="#f1b69a"/><path d="M83.3 51.5c1.2-2.7 8.3-1.5 9.3.5s-2.3 2.5-4.8 2.3-5.3-1-4.5-2.8z" fill="#150a08"/><g fill="#222"><path d="M62.8 33.8c0 18.2 34.6 27 41.3 22.7s1.5-19.8-16.2-24-25.1-4.1-25.1 1.3z"/><path d="M62.9 33.7c4.4 8.8-7.7 28.2-14.6 27s-6.9-8.9-1.5-17.9 14-13.3 16.1-9.1z"/></g></g></svg>