<svg xmlns="http://www.w3.org/2000/svg" xmlns:xlink="http://www.w3.org/1999/xlink" viewBox="0 0 153.4 155" xmlns:v="https://vecta.io/nano"><circle cx="76.7" cy="76.7" r="76.7" fill="#efefef"/><defs><circle id="A" cx="76.7" cy="76.7" r="76.7"/></defs><clipPath id="B"><use xlink:href="#A"/></clipPath><g clip-path="url(#B)"><path d="M105.7 62.7c10.6-19 2.2-29.9-4.6-26.3 0 0-1-11.8-16.5-18.9-17.9-8.2-41-1.8-45.5 10.5-4.2 11.5 3.3 17 3.3 17s-4.6 8.2 3.3 20.5 55.3 5.7 60-2.8z" fill="#29293d"/><path d="M143.5 155H9.9s4-22.4 13.2-35.3 43.3-17.6 43.3-17.6l10.3 1.6 10.3-1.6s34.1 4.7 43.3 17.6 13.2 35.3 13.2 35.3z" fill="#971632"/><g fill="#fff"><path d="M66.4 102.1l-13.2 2.5s3 14.9 15.1 22.4l8.2-10v-10.8l-10.1-4.1z"/><path d="M86.1 102.1l13.2 2.5s-3 14.9-15.1 22.4L76 117v-10.8l10.1-4.1z"/></g><path d="M76.5 113.5h0a8.96 8.96 0 0 1-9-9V87.1h18.1v17.3c-.1 5-4.1 9.1-9.1 9.1z" fill="#f1b69a"/><path d="M85.5 85.1v10.6s-3 5.3-9.1 5.3c-4.8 0-9-4.6-9-4.6V85.1h18.1z" fill="#150a08"/><path d="M51.2 66.5c-4.9-7.4-10.6-2.7-10.6 2.6 0 7.6 8.2 14.1 12.9 8.7s-2.3-11.3-2.3-11.3z" fill="#f1b69a"/><path d="M50.1 70c-3-5.7-7.3-.4-5.7 1.7" fill="none" stroke="#e07e61" stroke-linecap="round" stroke-miterlimit="10"/><path d="M100.1 66.5c4.9-7.4 10.6-2.7 10.6 2.6 0 7.6-8.2 14.1-12.9 8.7s2.3-11.3 2.3-11.3z" fill="#f1b69a"/><path d="M101.1 70c3-5.7 7.3-.4 5.7 1.7" fill="none" stroke="#e07e61" stroke-linecap="round" stroke-miterlimit="10"/><path d="M75.6 95.7c-19.3 0-30.8-21.2-26.3-42.8C53 35 98.2 35 101.9 52.9c4.5 21.7-7 42.8-26.3 42.8z" fill="#f1b69a"/><path d="M92.7 39.5c-5 11.3-16 4.8-16 4.8-5.1 4.3-11.7 6.3-18.3 5.7-11.1-1.1-16.8-14.4-3.4-20s44.8-6.3 37.7 9.5z" fill="#29293d"/></g></svg>